<?xml version="1.0" standalone="no"?><!DOCTYPE svg PUBLIC "-//W3C//DTD SVG 1.1//EN" "http://www.w3.org/Graphics/SVG/1.1/DTD/svg11.dtd"><svg t="1586879627659" class="icon" viewBox="0 0 1024 1024" version="1.1" xmlns="http://www.w3.org/2000/svg" p-id="4784" xmlns:xlink="http://www.w3.org/1999/xlink" width="200" height="200"><defs><style type="text/css"></style></defs><path d="M720.78 227.635c-50.214 0-167.629 29.737-208.777 30.98-41.082-2.318-158.566-30.98-208.776-30.98-118.986 0-223.352 84.804-215.453 258.543 7.902 173.729 162.358 460.65 274.545 468.398 107.857 7.445 101.884-23.422 149.684-25.818 47.8 2.396 41.83 33.263 149.685 25.818 112.183-7.741 266.64-294.67 274.545-468.398 7.895-173.739-96.468-258.543-215.453-258.543z" fill="#FF1515" p-id="4785"></path><path d="M630.733 976.213h-0.007c-49.176-0.003-70.642-9.932-87.893-17.913-10.278-4.758-17.77-8.223-30.833-9.032-13.063 0.81-20.552 4.277-30.826 9.032-17.247 7.984-38.71 17.917-87.9 17.917-9.902 0-20.79-0.406-32.365-1.209-83.842-5.789-162.745-129.396-192.775-182.272C109.854 690.128 71.226 573.02 67.318 487.11c-3.994-87.846 19.347-160.918 67.505-211.313 42.295-44.264 102.103-68.642 168.404-68.642 30.505 0 80.374 9.203 128.597 18.101 32.813 6.052 63.836 11.78 80.435 12.858 17.374-0.706 52.037-7.185 85.573-13.455 46.011-8.605 93.593-17.5 122.948-17.5 66.3 0 126.106 24.378 168.404 68.638 48.151 50.395 71.495 123.467 67.502 211.316-3.912 85.91-42.54 203.022-100.82 305.63-30.03 52.876-108.933 176.487-192.775 182.269-11.571 0.795-22.46 1.201-32.358 1.201zM512 908.278c0.341 0 0.683 0.01 1.024 0.027 21.637 1.082 34.536 7.049 47.008 12.82 15.009 6.947 30.533 14.128 70.694 14.132h0.007c8.96 0 18.9-0.372 29.539-1.106 94.768-6.54 247.586-275.04 255.495-448.898 3.478-76.404-15.958-139.045-56.198-181.156-34.491-36.096-83.783-55.975-138.79-55.975-25.555 0-73.297 8.926-115.418 16.8-38.901 7.274-72.502 13.558-92.736 14.166a19.183 19.183 0 0 1-1.772-0.024c-18.947-1.068-50.23-6.84-86.456-13.524-44.25-8.164-94.41-17.421-121.167-17.421-55.009 0-104.3 19.879-138.793 55.978-40.24 42.11-59.675 104.752-56.2 181.156 7.908 173.851 160.73 442.351 255.498 448.898 10.64 0.734 20.579 1.106 29.546 1.106 40.171 0 55.688-7.182 70.697-14.128 12.469-5.772 25.364-11.738 47.005-12.824 0.334-0.017 0.676-0.027 1.017-0.027z" fill="#CC0202" p-id="4786"></path><path d="M186.798 502.767c3.83 84.23 52.934 203.424 110.142 280.378" fill="#FF2C2C" p-id="4787"></path><path d="M296.957 803.628a20.446 20.446 0 0 1-16.453-8.26c-62.276-83.77-110.291-206.435-114.165-291.67a20.48 20.48 0 0 1 19.527-21.387c11.322-0.546 20.876 8.23 21.388 19.528 3.489 76.721 49.111 192.406 106.12 269.086a20.48 20.48 0 0 1-16.417 32.703z" fill="#FFFFFF" p-id="4788"></path><path d="M254.474 329.783c-17.326 10.694-32.6 25.013-44.868 43" fill="#FF2C2C" p-id="4789"></path><path d="M209.589 393.264a20.48 20.48 0 0 1-16.906-32.017c13.588-19.93 30.76-36.383 51.032-48.893a20.48 20.48 0 0 1 21.511 34.857c-15.35 9.472-28.371 21.958-38.7 37.11a20.456 20.456 0 0 1-16.937 8.943z" fill="#FFFFFF" p-id="4790"></path><path d="M599.48 123.614c-59.026 52.337-83.183 129.324-70.806 201.755 70.43 20.944 149.75 6.161 208.77-46.182C796.47 226.843 820.62 149.862 808.25 77.43c-70.438-20.944-149.757-6.167-208.77 46.183z" fill="#3A960F" p-id="4791"></path><path d="M591.698 355.014h-0.014c-23.347 0-46.51-3.369-68.847-10.015a20.48 20.48 0 0 1-14.35-16.179c-14.113-82.6 14.825-165.038 77.408-220.529A239.89 239.89 0 0 1 745.23 47.787 241.4 241.4 0 0 1 814.087 57.8a20.48 20.48 0 0 1 14.35 16.183c14.107 82.6-14.831 165.038-77.408 220.529a239.937 239.937 0 0 1-159.331 60.501z m-44.623-45.974a200.58 200.58 0 0 0 44.61 5.017h0.01a199.011 199.011 0 0 0 132.157-50.19c48.66-43.147 72.796-105.95 65.99-170.1a200.455 200.455 0 0 0-44.612-5.017 198.987 198.987 0 0 0-132.161 50.19c-48.66 43.148-72.803 105.95-65.994 170.1z" fill="#0F5108" p-id="4792"></path><path d="M517.601 369.364c15.452-156.737-42.09-241.17-42.09-241.17" fill="#7CBC00" p-id="4793"></path><path d="M517.622 389.844a20.48 20.48 0 0 1-20.405-22.49c14.435-146.399-38.144-226.902-38.68-227.697-6.27-9.373-3.813-22.088 5.533-28.4a20.439 20.439 0 0 1 28.361 5.404c2.52 3.697 61.546 92.443 45.544 254.713a20.473 20.473 0 0 1-20.353 18.47z" fill="#915823" p-id="4794"></path></svg>