<?xml version="1.0" standalone="no"?><!DOCTYPE svg PUBLIC "-//W3C//DTD SVG 1.1//EN" "http://www.w3.org/Graphics/SVG/1.1/DTD/svg11.dtd"><svg t="1586879687112" class="icon" viewBox="0 0 1024 1024" version="1.1" xmlns="http://www.w3.org/2000/svg" p-id="5967" xmlns:xlink="http://www.w3.org/1999/xlink" width="200" height="200"><defs><style type="text/css"></style></defs><path d="M819.1 337.5c6.2-23.2 8.1-50.6 4.3-79.4-9.9-75.3-54.6-131.5-99.8-125.6-45.2 6-73.8 71.9-63.8 147.2 4.8 36.6 17.9 68.7 35.2 91.3 32.3-15.8 75.5-31.2 124.1-33.5z" fill="#739E20" p-id="5968"></path><path d="M769.1 147.1c-14.2-11.2-29.9-16.7-45.6-14.6-45.2 6-73.8 71.9-63.8 147.2 3.6 27.4 11.8 52.2 22.9 72.4 31.9-15.1 73.3-29.2 119.7-31.4 6.2-23.2 8.1-50.6 4.3-79.4-5.1-38.1-19-71.4-37.5-94.2z" fill="#84B72C" p-id="5969"></path><path d="M634.3 433.7c-7.2 0-14.4-3.1-19.4-9.1-8.9-10.7-7.4-26.5 3.3-35.4 1.4-1.1 33.7-27.7 84.3-49.3 67.8-29 136.8-35.3 199.5-18.4 13.4 3.6 21.3 17.4 17.7 30.8-3.6 13.4-17.4 21.3-30.8 17.7-125.9-33.9-237.6 57-238.7 57.9-4.5 3.9-10.2 5.8-15.9 5.8z" fill="#E83D46" p-id="5970"></path><path d="M702.6 339.9c-50.6 21.6-83 48.2-84.3 49.3-8 6.7-10.9 17.2-8 26.6 2.4 0.7 4.8 1.1 7.3 1.1 5.6 0 11.3-1.9 16-5.8 1.1-0.9 112.8-91.9 238.7-57.9 13.4 3.6 27.2-4.3 30.8-17.7 1.3-4.7 1.1-9.5-0.2-13.8-0.3-0.1-0.5-0.2-0.8-0.2-62.7-17-131.7-10.6-199.5 18.4z" fill="#FF4F51" p-id="5971"></path><path d="M617.4 391.5c92.6 90.1 152 45.5 226.5 145.2C992.5 735.4 526 1106 294.1 894.3c-35.8-32.7-59.5-73.2-115.6-114.1-201.6-147 7.2-675.6 279.9-579.6 110.9 39 108.8 142.1 159 190.9z" fill="#E83D46" p-id="5972"></path><path d="M802 494.8c-1.1-1.4-2.1-2.8-3.2-4.1-55.7-40.9-108.2-27.8-181.5-99.2-5.8-5.7-11-12.1-15.7-19.1-8.5-6.5-17.2-14-26.2-22.8-31.6-30.8-42.5-83-73.9-127.3-12.2-8.4-26.4-15.8-43.2-21.7C206.5 111.9 9.1 556.3 139.4 740.4c27.4 20.4 46.9 40.6 64.1 59.8 24.3 21.1 41.8 41.8 58.7 61C497.3 1053.5 948.5 690.7 802 494.8z" fill="#FF4F51" p-id="5973"></path></svg>