<?xml version="1.0" standalone="no"?><!DOCTYPE svg PUBLIC "-//W3C//DTD SVG 1.1//EN" "http://www.w3.org/Graphics/SVG/1.1/DTD/svg11.dtd"><svg t="1586879650170" class="icon" viewBox="0 0 1024 1024" version="1.1" xmlns="http://www.w3.org/2000/svg" p-id="4931" xmlns:xlink="http://www.w3.org/1999/xlink" width="200" height="200"><defs><style type="text/css"></style></defs><path d="M529.49 260.28a148.54 148.54 0 0 0-91.09 43.58A184.46 184.46 0 0 1 280 356c-35.4-5.31-69.68 1.52-99.32 19.07-80.42 47.63-87.17 183.07-15.08 302.52s195.72 177.67 276.14 130a116.19 116.19 0 0 0 29.45-24.92 72.62 72.62 0 0 1 71.7-23.59 117.35 117.35 0 0 0 38.64 2.51c93.21-9.49 157.11-129.42 142.74-267.86S622.7 250.78 529.49 260.28z" fill="#F4193E" p-id="4932"></path><path d="M378.57 832.3c-25.78 0-53.35-6.61-81.41-19.83-53.57-25.22-102.72-71.67-138.39-130.77-44.71-74.09-61.45-157.9-44.77-224.2 10.11-40.18 31.76-71.07 62.62-89.34 31.54-18.68 67.7-25.63 104.58-20.1a176.45 176.45 0 0 0 151.52-49.84 156.44 156.44 0 0 1 95.95-45.9l0.81 8-0.81-8c47.81-4.88 95.36 17.89 133.91 64.09 37.8 45.3 62.54 108 69.66 176.51 8.89 85.63-11.59 168.46-54.79 221.57-26.33 32.37-59.22 51.42-95.1 55.07a125.77 125.77 0 0 1-41.26-2.67 64.3 64.3 0 0 0-63.79 21 124.42 124.42 0 0 1-31.47 26.62c-20.05 11.86-42.83 17.79-67.26 17.79zM256.71 362.22a140.19 140.19 0 0 0-71.93 19.7c-27.1 16.05-46.21 43.54-55.25 79.48-15.67 62.25 0.38 141.52 42.94 212C242.18 788.94 361.16 846 437.69 800.72a108.71 108.71 0 0 0 27.43-23.22 80.23 80.23 0 0 1 79.59-26.2 110.21 110.21 0 0 0 36 2.35c31.56-3.22 60.71-20.25 84.31-49.26 40.57-49.88 59.74-128.32 51.28-209.82-13.9-133.84-97.34-235.36-186-226.33a140.65 140.65 0 0 0-86.24 41.27 192.45 192.45 0 0 1-165.23 54.38 148.17 148.17 0 0 0-22.12-1.67z" fill="#195579" p-id="4933"></path><path d="M369.76 336.72c-9.42-25.35-37.54-94.15-68.58-104.07a9.73 9.73 0 0 0-9.48 2.12l-20.12 18.42a9.55 9.55 0 0 0 2.11 15.57c19.27 9.94 55.95 33.31 78.39 75.74a9.73 9.73 0 0 0 11.64 4.65 9.58 9.58 0 0 0 6.04-12.43z" fill="#F4193E" p-id="4934"></path><path d="M360.63 357.65a17.64 17.64 0 0 1-15.63-9.41c-21.32-40.3-56.13-62.64-75-72.37a17.55 17.55 0 0 1-3.85-28.58l20.12-18.42a17.72 17.72 0 0 1 17.34-3.87c15.57 5 30.92 21.32 46.95 50 12.43 22.23 22.06 46.46 26.7 58.93a17.58 17.58 0 0 1-11.05 22.82 17.75 17.75 0 0 1-5.58 0.9zM298.29 240.2a1.83 1.83 0 0 0-1.19 0.47L277 259.09a1.48 1.48 0 0 0-0.5 1.35 1.54 1.54 0 0 0 0.88 1.21c20.52 10.59 58.43 34.94 81.79 79.11a1.73 1.73 0 0 0 2.06 0.79 1.57 1.57 0 0 0 1-0.85 1.46 1.46 0 0 0 0.06-1.19c-16.12-43.31-41.29-92.11-63.55-99.24a1.69 1.69 0 0 0-0.45-0.07z" fill="#195579" p-id="4935"></path><path d="M363.72 349.15c35.45-6 93.38 33.4 140.45 33 75.08-0.66 126.53-54.42 204.63-44.75-33.47-63.17-103.74-156.4-227.87-131.56-75 15.04-108.93 97.46-117.21 143.31z" fill="#4C8F92" p-id="4936"></path><path d="M503.41 390.14c-24.32 0-50.19-9.44-75.22-18.57C403.93 362.71 381 354.35 365 357l-11.22 1.89 2-11.2c8.69-48.16 44.49-133.89 123.51-149.73 57.12-11.45 109 0.06 154.33 34.21 31.42 23.7 59.07 57.82 82.19 101.43l7.19 13.57-15.24-1.89c-40.36-5-73.06 7.71-107.69 21.16-29.53 11.48-60.06 23.34-95.89 23.65z m-129.73-49.57c17.82 0.58 38.41 8.09 60 16 23.72 8.65 48.25 17.6 69.75 17.6h0.67c32.91-0.29 60.76-11.11 90.25-22.56 30.88-12 62.67-24.37 100.28-23.28-38.76-67-105.62-136-212.12-114.6C451.4 219.92 425 239 404 270.39c-13.53 20.14-24.51 45.74-30.32 70.18z" fill="#195579" p-id="4937"></path><path d="M363.72 357.15a8 8 0 0 1-5.53-13.79 419.66 419.66 0 0 1 58-44.52c46.1-29.51 88.1-43.62 124.82-41.91a8 8 0 0 1-0.74 16c-80-3.67-170.13 81.17-171 82a7.93 7.93 0 0 1-5.55 2.22z" fill="#195579" p-id="4938"></path><path d="M724.29 493.74c-5-48.44-19-92.72-39-129.42a152 152 0 0 0-57.55 2.07 184.66 184.66 0 0 1-161.86-40.24A153.46 153.46 0 0 0 436.21 306 184.44 184.44 0 0 1 280 356a157.53 157.53 0 0 0-26-1.73c-34.34 45.06-56.83 109.87-58.86 182.42-3.9 139.12 68.88 254 162.54 256.55a117.8 117.8 0 0 0 38.32-5.39 72.8 72.8 0 0 1 61.47 8.56 117.13 117.13 0 0 0 13.73-13.73 72.62 72.62 0 0 1 71.7-23.59 117.35 117.35 0 0 0 38.64 2.51c93.22-9.49 157.12-129.42 142.75-267.86z" fill="#195579" p-id="4939"></path><path d="M786.23 378.05c-30.88-15.31-65.57-19.58-100.48-11.66a184.66 184.66 0 0 1-161.86-40.24 148.8 148.8 0 0 0-94.13-36.72C336.1 286.86 257 397.55 253.12 536.66s68.88 254 162.54 256.55a117.8 117.8 0 0 0 38.34-5.36 72.68 72.68 0 0 1 73.27 18.21 116.4 116.4 0 0 0 31.25 22.67c83.79 41.54 202.69-25.67 265.56-150.12S870 419.6 786.23 378.05z" fill="#F4193E" p-id="4940"></path><path d="M612.57 849.09A128.63 128.63 0 0 1 555 835.9a124.68 124.68 0 0 1-33.38-24.22 64.4 64.4 0 0 0-65.2-16.2 125.67 125.67 0 0 1-40.95 5.73c-48.05-1.32-92.22-30-124.39-80.79-31.55-49.79-47.86-115.13-45.93-184S267 403.24 301.27 355.26c35-48.93 80.69-75.12 128.71-73.83a156.75 156.75 0 0 1 99.14 38.67A176.68 176.68 0 0 0 684 358.59c36.36-8.25 72.94-4 105.8 12.3 32.2 15.95 56.09 45.19 69.2 84.55 21.59 64.86 11.22 149.64-27.76 226.78-31.11 61.59-76.62 111.54-128.14 140.66-30.81 17.42-61.64 26.21-90.53 26.21z m-136.75-72.58A80.15 80.15 0 0 1 533 800.44a108.74 108.74 0 0 0 29.11 21.12C641.82 861.1 756.15 795.35 817 675c37.1-73.42 47.14-153.61 26.86-214.52-11.72-35.23-32.86-61.25-61.13-75.27-29.53-14.64-62.43-18.45-95.16-11a192.69 192.69 0 0 1-168.86-42 140.89 140.89 0 0 0-89.12-34.78h-3c-87.81 0-161.72 106.51-165.44 239.5-1.84 65.7 13.59 127.84 43.44 175 29.2 46.07 68.74 72.07 111.29 73.28a109.6 109.6 0 0 0 35.75-5 81.16 81.16 0 0 1 24.19-3.7z" fill="#195579" p-id="4941"></path><path d="M786.23 378.05c-30.88-15.31-65.57-19.58-100.48-11.66A184.88 184.88 0 0 1 561 351c-1.48 1.49-2.9 3-4.25 4.42 38.82 16.25 71 91.34 117.7 120.34 60 37.22 126.8 30.93 187.58 57.45 1.23-70.56-25.03-129.97-75.8-155.16z" fill="#195579" p-id="4942"></path><path d="M610 357.62c5.78-26.39 19.34-99.4-1.48-124.27a9.67 9.67 0 0 0-9.14-3.25l-27 4.84a9.59 9.59 0 0 0-6.66 14.27c10.87 18.63 29.16 57.84 25.11 105.57a9.61 9.61 0 0 0 7.29 10.12 9.71 9.71 0 0 0 11.88-7.28z" fill="#F4193E" p-id="4943"></path><path d="M600.61 373.2a17.85 17.85 0 0 1-4.34-0.54 17.52 17.52 0 0 1-13.33-18.55c3.84-45.32-13.42-82.65-24.05-100.87a17.58 17.58 0 0 1 12.16-26.17l27-4.85a17.71 17.71 0 0 1 16.69 6c10.46 12.5 14.57 34.48 12.57 67.19-1.55 25.37-6.56 51-9.41 63.93a17.71 17.71 0 0 1-17.24 13.87z m0.56-135.26a2 2 0 0 0-0.34 0l-27 4.84a1.61 1.61 0 0 0-1.23 0.93 1.48 1.48 0 0 0 0.07 1.43c11.63 19.86 30.43 60.61 26.21 110.32a1.59 1.59 0 0 0 1.25 1.67 1.78 1.78 0 0 0 1.36-0.2 1.59 1.59 0 0 0 0.73-1c9.88-45.08 15.13-99.6 0.2-117.43a1.62 1.62 0 0 0-1.25-0.56z" fill="#195579" p-id="4944"></path><path d="M598.2 364.9c33.15 13.81 60.7 77.83 100.64 102.5 63.71 39.37 136.25 21.36 196.9 71.05 6-71.08-2.77-187.14-121-232.15-71.41-27.19-144.74 24.31-176.54 58.6z" fill="#4C8F92" p-id="4945"></path><path d="M902.44 554.28l-11.77-9.64c-31.33-25.66-65.8-32.33-102.31-39.39-31.13-6-63.32-12.25-93.73-31-20.85-12.88-37.77-34.87-54.13-56.12-15.67-20.36-30.46-39.59-45.37-45.81l-10.6-4.41 7.81-8.41c33.41-36 110-89.28 185.25-60.63 54.42 20.71 92 58.05 111.72 111 13.69 36.65 18.53 80.13 14.4 129.25zM611.27 363c14.7 10 28 27.24 41.91 45.33 15.49 20.12 31.5 40.92 49.86 52.27 27.92 17.24 57.28 22.92 88.36 28.94 32.59 6.3 66.16 12.8 97.33 33.74 3.63-77.16-15.41-170.89-116.83-209.5-29.63-11.28-62.28-9.23-97 6.09-22.34 9.82-45.48 25.58-63.63 43.13z" fill="#195579" p-id="4946"></path><path d="M793.11 395.9a8 8 0 0 1-4.57-1.44c-18.77-13.08-54.65-28.59-118.77-28.14a413.11 413.11 0 0 0-70 6.42 8 8 0 0 1-3.15-15.69 424.18 424.18 0 0 1 73-6.73c54.92-0.39 98 10.05 128 31a8 8 0 0 1-4.58 14.56z" fill="#195579" p-id="4947"></path></svg>