<?xml version="1.0" standalone="no"?><!DOCTYPE svg PUBLIC "-//W3C//DTD SVG 1.1//EN" "http://www.w3.org/Graphics/SVG/1.1/DTD/svg11.dtd"><svg t="1588584243147" class="icon" viewBox="0 0 1024 1024" version="1.1" xmlns="http://www.w3.org/2000/svg" p-id="6549" width="32" height="32" xmlns:xlink="http://www.w3.org/1999/xlink"><defs><style type="text/css"></style></defs><path d="M547.1 913.7c116.6-0.8 202.8-46.7 264.4-102.2 86.9-78.4 128-197.1 120.5-319.2C915.1 215.1 573.6 284 548.1 362h-2c-25.5-78-367-146.9-383.9 130.3-7.5 122.1 33.7 240.5 120.5 318.9 61.6 55.5 147.8 101.7 264.4 102.5z" fill="#FFDA00" p-id="6550"></path><path d="M498.9 938h-0.2c-57.4-1-111.9-11.5-162-32.7-42.6-18-82.4-43.6-118.3-76-89.8-81-136.6-204.2-128.4-338 2.4-39.2 11.1-74.2 25.8-103.9 13.7-27.8 32.7-51.2 56.5-69.7 51.1-39.7 112.2-48 154.5-48 42.2 0 85.2 8.2 121.2 23.2 21 8.7 38.2 19.2 50.9 30.9 12.6-11.6 29.8-22.2 50.9-30.9 36-14.9 79-23.2 121.2-23.2 42.3 0 103.5 8.3 154.5 48 23.8 18.5 42.8 41.9 56.5 69.7 14.7 29.8 23.4 64.7 25.8 103.9 8.2 133.8-38.6 257-128.4 338-35.9 32.4-75.7 58.1-118.3 76.1-50.1 21.1-104.6 31.6-162 32.6h-0.2zM326.8 317.7c-53.5 0-179.1 17.2-188.9 176.5-7.3 119.1 33.8 228.2 112.7 299.4 69.9 63.1 153.4 95.4 248.3 96.1 94.9-0.7 178.5-33 248.3-96.1 78.9-71.1 119.9-180.3 112.7-299.4-9.7-159.3-135.3-176.5-188.9-176.5-35.5 0-73 7.1-102.8 19.5-31.6 13.1-43.4 27.1-45.5 33.3-3.2 9.9-12.4 16.5-22.8 16.5h-2c-10.4 0-19.6-6.7-22.8-16.5-2-6.2-13.9-20.2-45.5-33.3-29.8-12.4-67.3-19.5-102.8-19.5z" fill="#EF4848" p-id="6551"></path><path d="M782.5 650.5c-1.6 0-3.3-0.2-5-0.7-9-2.7-14-12.3-11.3-21.2 1.7-5.6 3.3-11.3 4.6-17.1 2.2-9.1 11.4-14.8 20.5-12.6 9.1 2.2 14.8 11.3 12.6 20.5-1.5 6.4-3.3 12.9-5.2 19.1-2.2 7.3-8.9 12-16.2 12zM622.2 832.9c-6.4 0-12.5-3.6-15.4-9.7-4-8.5-0.4-18.6 8.1-22.6 23.5-11.1 45.6-25.7 69.3-45.9 14.3-12.1 27.5-26.4 40.6-43.8 6.4-8.6 12.5-18.2 19.3-30.3 4.6-8.2 14.9-11.2 23.1-6.6 8.2 4.6 11.2 14.9 6.6 23.1-7.5 13.5-14.4 24.4-21.8 34.2-14.6 19.4-29.5 35.5-45.8 49.3-26.1 22.1-50.5 38.2-76.8 50.7-2.3 1.1-4.7 1.6-7.2 1.6zM499.1 368.6c-0.5 0-1.1 0-1.6-0.1-13.2-0.9-23.2-12.3-22.3-25.6 8.7-129-29-150.2-72.6-174.7-2.5-1.4-5-2.8-7.5-4.3-11.5-6.6-15.5-21.2-8.9-32.7s21.2-15.5 32.7-8.9c2.4 1.4 4.8 2.7 7.2 4.1 24.4 13.7 52.1 29.3 72.1 62.9 21.7 36.5 29.6 86.4 24.9 156.9-0.9 12.7-11.5 22.4-24 22.4z" fill="#EF4848" p-id="6552"></path><path d="M560.3 259.5c-51.1 0-88-17.3-96.2-45.2-6.4-21.8 4.7-47 31.2-71.1 23-20.9 54.5-37.9 88.6-47.9 20.1-5.9 41-8.9 62.2-8.9 43.4 0 94.1 13.8 103 43.9 7.6 25.7-16.4 53.7-31.4 68.1-24 23.1-55.4 41.2-88.4 50.9-22.7 6.7-46.5 10.2-69 10.2z m-49.6-59c4.6 3.8 20.7 10.9 49.6 10.9 18 0 37.2-2.9 55.5-8.2 46.8-13.8 76.2-44.4 84.5-58.5-8.6-4.3-27.3-10.4-54.2-10.4-16.6 0-33 2.3-48.6 7-24.9 7.3-48.2 19.4-65.7 33.8-14.8 12.2-19.9 21.7-21.1 25.4z" fill="#EF4848" p-id="6553"></path></svg>