<?xml version="1.0" standalone="no"?><!DOCTYPE svg PUBLIC "-//W3C//DTD SVG 1.1//EN" "http://www.w3.org/Graphics/SVG/1.1/DTD/svg11.dtd"><svg t="1588584360556" class="icon" viewBox="0 0 1024 1024" version="1.1" xmlns="http://www.w3.org/2000/svg" p-id="8494" width="32" height="32" xmlns:xlink="http://www.w3.org/1999/xlink"><defs><style type="text/css"></style></defs><path d="M266 684.4m-211.4 0a211.4 211.4 0 1 0 422.8 0 211.4 211.4 0 1 0-422.8 0Z" fill="#FFFFFF" p-id="8495"></path><path d="M466.8 667.6c12.3 115.5-60.1 209.2-128.1 211.8C222 883.9 127.3 784.8 127.3 668s53-190.9 169.7-190.9c94.2 0 159.5 93.2 169.8 190.5z" fill="#F45454" p-id="8496"></path><path d="M763.1 682.4m-202.4 0a202.4 202.4 0 1 0 404.8 0 202.4 202.4 0 1 0-404.8 0Z" fill="#F45454" p-id="8497"></path><path d="M266 916.8c-61.8 0-119.9-24.1-163.6-67.8S34.6 747.3 34.6 685.5s24.1-119.9 67.8-163.6 101.8-67.8 163.6-67.8 119.9 24.1 163.6 67.8 67.8 101.8 67.8 163.6-24.1 119.9-67.8 163.6-101.8 67.7-163.6 67.7z m0-422.7c-105.5 0-191.4 85.9-191.4 191.4S160.5 876.9 266 876.9 457.4 791 457.4 685.5c0-105.6-85.9-191.4-191.4-191.4zM763.1 905.8c-59.4 0-115.3-23.1-157.3-65.1-42-42-65.1-97.9-65.1-157.3s23.1-115.3 65.1-157.3c42-42 97.9-65.1 157.3-65.1 59.4 0 115.3 23.1 157.3 65.1 42 42 65.1 97.9 65.1 157.3s-23.1 115.3-65.1 157.3c-42.1 42-97.9 65.1-157.3 65.1z m0-404.8c-100.6 0-182.4 81.8-182.4 182.4 0 100.6 81.8 182.4 182.4 182.4 100.6 0 182.4-81.8 182.4-182.4 0-100.6-81.8-182.4-182.4-182.4z" fill="#424649" p-id="8498"></path><path d="M701.2 578.1c-4.9 0-9.8-1.8-13.7-5.4-3.6-3.4-89.4-84.9-124.6-199-31.4-101.8-21.7-254.3-21.3-260.8 0.7-11 10.3-19.4 21.3-18.6 11 0.7 19.4 10.3 18.6 21.3-0.1 1.5-9.6 151.7 19.6 246.3 32.2 104.1 113 180.9 113.8 181.6 8 7.6 8.4 20.2 0.9 28.3-3.9 4.2-9.2 6.3-14.6 6.3z" fill="#424649" p-id="8499"></path><path d="M511.7 777m-223.5 0a223.5 223.5 0 1 0 447 0 223.5 223.5 0 1 0-447 0Z" fill="#FFFFFF" p-id="8500"></path><path d="M727 777.3c-4.1 120.1-61.1 190.5-144.7 188.7-123.4-2.7-223.5-100.1-223.5-223.5s47.3-194.2 170.4-184.7c121.2 9.3 201.5 111.6 197.8 219.5z" fill="#F45454" p-id="8501"></path><path d="M511.7 1021.5c-65 0-126.2-25.3-172.2-71.3-46-46-71.3-107.1-71.3-172.2s25.3-126.2 71.3-172.2 107.1-71.3 172.2-71.3 126.2 25.3 172.2 71.3S755.1 713 755.1 778s-25.3 126.2-71.3 172.2c-46 46-107.1 71.3-172.1 71.3z m0-446.9c-112.2 0-203.5 91.3-203.5 203.5s91.3 203.5 203.5 203.5S715.1 890.2 715.1 778c0-112.2-91.2-203.4-203.4-203.4z" fill="#424649" p-id="8502"></path><path d="M478.5 645.9c-9.2 0-17.4-6.3-19.5-15.7-1.2-5.5-30.3-137.2-28.3-248.8 0.8-47.3 9.9-106.2 26.9-174.9 2.5-10.1 5-19.6 7.3-28.4-41 35.3-97.7 92.2-126.2 156.5-50.4 113.6-55.3 221.1-55.3 222.2-0.4 11-9.7 19.6-20.8 19.2-11-0.4-19.6-9.7-19.2-20.8 0.2-4.7 5.1-115.9 58.7-236.8 52.1-117.5 182.9-207.3 188.4-211l48.9-33.2-18.7 56.1c-0.5 1.4-48.2 145.9-50.1 252-1.9 106.9 27.1 238.1 27.4 239.4 2.4 10.8-4.4 21.5-15.2 23.9-1.4 0.2-2.9 0.3-4.3 0.3z" fill="#424649" p-id="8503"></path><path d="M555.3 33.7c-22.9 10.5-64.8 38.7-80.4 80.4-20.6 54.9 16.4 145.9 79.6 188.3 94.3 63.3 235.2 51.4 235.2 51.4S820.8 181 747.3 82.1C682.6-5 582.9 21 555.3 33.7z" fill="#FFFFFF" p-id="8504"></path><path d="M611.9 30.5c-24.3 6.6-53.2 39.6-68.9 81.2-20.6 54.9 16.4 145.9 79.6 188.3 94.4 63.3 163.8 51 163.8 51s28-161.3-27.7-248.7c-53-83.2-107.7-82.4-146.8-71.8z" fill="#E4EADC" p-id="8505"></path><path d="M761.3 375.7c-48.4 0-145-6.8-217.9-55.7-33.1-22.2-61.7-58.1-78.6-98.4-17.2-41.1-20.3-82.5-8.6-113.6 16.7-44.4 59.3-77 90.8-91.5 18.9-8.7 54.4-17.9 91.9-15 50.5 3.9 93.5 27.9 124.5 69.6 33 44.4 50.7 106.4 52.7 184.3 1.5 56.9-6.3 101-6.7 102.8l-2.7 15.1-15.3 1.3c-1.5 0.2-12.7 1.1-30.1 1.1zM563.7 52.9c-19.8 9.1-56.8 33.9-70 69.2-8 21.3-5 52.8 8.1 84.1 13.9 33.3 37.2 62.6 63.9 80.6 69.7 46.7 168.5 49.6 206.6 48.7 5.2-43.4 14.1-166.4-41-240.5-24.2-32.6-56.3-50.6-95.4-53.6-32-2.4-60.5 6.1-72.2 11.5z" fill="#424649" p-id="8506"></path><path d="M702.9 271.3c-7 0-13.8-3.7-17.4-10.2-0.4-0.7-38.1-67.3-67-104.7C568 91.1 512 77.3 511.4 77.2h0.1l8.7-39c2.8 0.6 70 16.3 129.9 93.8 30.8 39.7 68.6 106.7 70.2 109.5 5.4 9.6 2 21.8-7.6 27.2-3.1 1.7-6.5 2.6-9.8 2.6zM441.5 665.4c-9.4 0-17.7-6.6-19.6-16.2-2.1-10.8 4.9-21.3 15.8-23.5l86.6-17c10.8-2.1 21.3 4.9 23.5 15.8 2.1 10.8-4.9 21.3-15.8 23.5l-86.6 17c-1.3 0.2-2.6 0.4-3.9 0.4zM301.6 589.7c-1.2 0-2.4-0.1-3.6-0.3l-88.3-15.8c-10.9-1.9-18.1-12.3-16.2-23.2 1.9-10.9 12.3-18.1 23.2-16.2L305 550c10.9 1.9 18.1 12.3 16.2 23.2-1.7 9.7-10.1 16.5-19.6 16.5zM677.2 615c-6.3 0-12.6-3-16.5-8.6-6.3-9.1-4-21.5 5.1-27.8l62.9-43.5c9.1-6.3 21.5-4 27.8 5.1 6.3 9.1 4 21.5-5.1 27.8l-62.9 43.5c-3.5 2.4-7.4 3.5-11.3 3.5z" fill="#424649" p-id="8507"></path></svg>