<?xml version="1.0" standalone="no"?><!DOCTYPE svg PUBLIC "-//W3C//DTD SVG 1.1//EN" "http://www.w3.org/Graphics/SVG/1.1/DTD/svg11.dtd"><svg t="1588584433900" class="icon" viewBox="0 0 1024 1024" version="1.1" xmlns="http://www.w3.org/2000/svg" p-id="9737" width="32" height="32" xmlns:xlink="http://www.w3.org/1999/xlink"><defs><style type="text/css"></style></defs><path d="M215.8 744.9c-20.3 81 69.7 215.2 188 206 116-9 120.3-87.9 171-76 140 33 190.1-40.6 211-80 27-51 33-121-20-129s-115 46-129 65-122 86-141 87-179 1-187 0-87.1-96.5-93-73z" fill="#FFC9CD" p-id="9738"></path><path d="M440.8 598.9c-35.7 22.9-75 10-84-1-3.6-4.4-7.7-8.3-12.3-11.4 10.3 9.4 17.2 44.1 39.3 47.4 33 5 46.8-39.8 81.4-39.9-8.8-1.4-17.1 0.2-24.4 4.9z" fill="#F9E3D9" p-id="9739"></path><path d="M485.8 713.4c-0.4 0-0.8-0.1-1.2-0.2l-156-55c-1-0.3-1.8-1.1-2.1-2.1l-13-35c-0.2-0.4-0.2-0.9-0.2-1.3 1.1-47.6 13.8-89.5 36.9-121.1 26.5-36.3 66-57.2 114.4-60.3 4.3-0.3 8.8-0.4 13.5-0.4 36.6 0 75.9 8.6 105.2 23.1 38.7 19.1 61.2 47.9 65 83.5 2.2 19.8-5.2 41.1-21.7 63.3-13 17.4-31.8 35.4-55.8 53.5-40.7 30.7-83 51.5-83.4 51.7-0.6 0.2-1.1 0.3-1.6 0.3z" fill="#F45A64" p-id="9740"></path><path d="M478 441.5c62.4 0 158.4 26.1 166.8 103.4 9 83-159 165-159 165l-156-55-13-35c2-87 45.2-171.3 148-178 4.2-0.3 8.6-0.4 13.2-0.4m0-7v7-7c-4.7 0-9.3 0.1-13.7 0.4-25.7 1.7-49 8.2-69.1 19.3-18.7 10.3-34.8 24.6-47.9 42.5-12 16.5-21.4 35.9-27.7 57.7-6 20.3-9.3 42.3-9.8 65.4 0 0.9 0.1 1.8 0.4 2.6l13 35c0.7 1.9 2.3 3.5 4.2 4.2l156 55c0.8 0.3 1.5 0.4 2.3 0.4 1.1 0 2.1-0.2 3.1-0.7 1.7-0.8 43.1-21.2 84-52.1 24.3-18.3 43.3-36.6 56.5-54.2 17.1-22.9 24.7-45 22.4-65.7-4-36.8-27.1-66.6-67-86.2-42.9-21.3-88.9-23.6-106.7-23.6z" fill="#D11B47" p-id="9741"></path><path d="M410 576.3c-28.3 0-58-18.6-75.7-47.3-0.6-1-0.7-2.3-0.2-3.3 17.7-37.1 54.6-82.3 130.4-87.3 4.3-0.3 8.8-0.4 13.5-0.4 41.9 0 99.8 11.5 136.6 43.7 1.1 1 1.5 2.6 0.9 4-0.6 1.3-1.8 2.1-3.2 2.1h-0.4c-11.3-1.2-21.3-1.7-30.8-1.7-35.3 0-62.5 8.4-83.2 25.6-7.8 6.8-14.8 15.2-21.6 23.3-12.9 15.5-26.2 31.5-46.6 38.3-6.3 2-12.9 3-19.7 3z" fill="#F45A64" p-id="9742"></path><path d="M478 441.5c41.9 0 98.8 11.8 134.3 42.8-10.3-1.1-20.8-1.8-31.1-1.8-30.9 0-61.1 6.1-85.4 26.4-23 20-37 51-67 61-6.2 2-12.5 2.9-18.7 2.9-28.7 0-56.6-19.5-72.7-45.6 22.2-46.6 63.1-81.1 127.4-85.3 4.2-0.3 8.6-0.4 13.2-0.4m0-7c-4.7 0-9.3 0.1-13.7 0.4-31.9 2.1-59.9 11.5-83.1 28.1-21.1 15-38 35.6-50.2 61.2-1 2.1-0.9 4.7 0.4 6.7 8.7 14.1 20.3 26.1 33.8 34.8 14.3 9.2 29.8 14.1 44.9 14.1 7.1 0 14.1-1.1 20.8-3.2h0.1c21.3-7.1 35-23.5 48.2-39.4 7-8.4 13.5-16.3 21.2-22.9 20-16.6 46.4-24.7 80.9-24.7 9.3 0 19.2 0.6 30.4 1.7h0.7c2.8 0 5.3-1.6 6.4-4.2 1.2-2.8 0.5-6.1-1.8-8.1-37.6-32.8-96.5-44.5-139-44.5z" fill="#D11B47" p-id="9743"></path><path d="M526.8 470.9c2.5 6.6-9 0-16-3-7.4-3.2-41-7-61-5s-18 11-20 24c-0.8 5.1 11.6 8.7 24 11 14.1 2.6 34.5-0.2 34 3-1 6-26 18-51 16s-65-10-16.4-52.3c18.1-15.8 73.8-13.8 94.4-2.7 3.3 1.8 10.6 5.5 12 9z" fill="#FFB0B7" p-id="9744"></path><path d="M495.8 508.9c-23 20-37 51-67 61-34.7 11-71.9-10.9-91.4-42.7-13.3 27.9-19.8 60.1-20.6 92.7l13 35 156 55s168-82 159-165c-2.8-25.5-15-45.4-32.5-60.6-41.1-4.3-84.1-2.4-116.5 24.6z" fill="#F43F4B" p-id="9745"></path><path d="M474.5 490.4c-8.3 0-15.3-2.8-20.3-8.1-0.7-0.7-1-1.7-0.9-2.7 0.5-5.3 2.8-6.7 5-7.7 1.1-0.5 3.4-1.6 4-17 1-28.2 49.9-248.5 96.6-302.9 10.2-18.6 12.8-23.5 13.5-24.9 0.1-0.4 0.3-0.7 0.5-1 1-1.5 2.4-1.6 3-1.6 1.2 0 2.3 0.6 2.9 1.6 0.2 0.3 0.4 0.6 0.5 1.1l9.6 18.3c0.7 1.2 0.5 2.8-0.4 3.9-0.4 0.5-41.8 51.3-63.4 119.8-1.6 5-3.1 9.9-4.6 14.7-21.9 69.3-39.3 124.1-30.4 183.6 1.7 1.5 3.9 2 6.1 2.5 2.7 0.6 8.2 1.9 7.1 7.8-1.3 5.9-16.3 12.6-28.8 12.6z" fill="#5EE37F" p-id="9746"></path><path d="M575.8 127.8v0.1-0.1c0 0.1 0 0 0 0m0 0.2l10 18.9s-42 51-64 121c-23.9 75.9-45 136-35 201 5 6 14 3 13 8-0.7 3.3-12.9 10-25.3 10-6.5 0-12.9-1.8-17.7-7 1-10 8 3 9-25s50-248 96-301c11.5-20.9 13.7-25.2 14-25.9m0-7.2c-2.4 0-4.5 1.2-5.9 3.2-0.4 0.5-0.6 1.1-0.8 1.7-0.8 1.5-3.5 6.7-13.1 24.2-25.5 29.9-49.8 104.5-65.8 162-18.7 67.1-30.9 128.4-31.4 142.8-0.4 9.9-1.5 13.1-1.9 14h-0.1c-3.1 1.4-6.3 3.8-7 10.6-0.2 2 0.5 4 1.8 5.5 5.6 6 13.5 9.2 22.9 9.2 8.7 0 16.2-2.7 19.9-4.4 7.3-3.3 11.4-7 12.3-11.3 0.8-4-0.7-7.7-4-9.8-1.8-1.2-3.8-1.6-5.7-2-1.5-0.4-2.7-0.6-3.6-1.1-8.2-58.2 8.9-112.3 30.5-180.6 1.5-4.8 3.1-9.7 4.6-14.7 21.3-67.8 62.3-118.1 62.7-118.7 1.8-2.2 2.1-5.2 0.8-7.7l-9.5-18c-0.3-0.8-0.6-1.4-0.8-1.7-1.3-2-3.5-3.2-5.9-3.2z" fill="#3A8F4F" p-id="9747"></path><path d="M637.5 859.4c-50.1 0-99.9-32.5-132.8-59.8-35.4-29.4-59.5-59.2-59.7-59.5-0.4-0.5-0.6-1.1-0.7-1.7-5.1-35.4 25.8-129.6 27.1-133.6 6.6-19.7 17.1-45.1 40.8-67.5 28.8-27.2 71-43.6 125.2-48.9 6.6-0.6 13.2-1 19.6-1 25.6 0 49 5.3 69.6 15.7 17.4 8.8 32.8 21.3 45.9 37.1 28.1 34.1 35.6 71 36.8 78 3.6 20.8 7.4 62.4-7 107.3-18.6 58-60.7 100.6-125.2 126.6-12.5 4.9-25.8 7.3-39.6 7.3z" fill="#F45A64" p-id="9748"></path><path d="M657 491c107.9 0 143.1 94.8 148.8 128 6 35 19 170-130 230-12.6 4.9-25.4 7-38.2 7-95 0-189.8-118-189.8-118-5-35 27-132 27-132 12-36 40-102 163-114 6.6-0.7 13-1 19.2-1m0-7v7-7c-6.5 0-13.2 0.3-19.9 1-55 5.4-97.8 22.1-127.2 49.9-24.2 22.8-35 48.8-41.7 68.9-1.3 4-32.5 99-27.3 135.2 0.2 1.2 0.7 2.4 1.5 3.4 1 1.2 24.5 30.4 60.2 60 21.1 17.5 42 31.4 62.1 41.4 25.6 12.7 50.1 19.2 72.9 19.2 14.2 0 27.9-2.5 40.8-7.5h0.1c35.4-14.2 64.5-33.8 86.6-58.1 18.4-20.3 32.1-44.1 40.6-70.6 14.6-45.6 10.7-87.8 7.1-108.9-1.2-7.2-8.9-44.9-37.6-79.7-13.4-16.2-29.2-29-47-38-21.1-10.8-45.1-16.2-71.2-16.2z" fill="#D11B47" p-id="9749"></path><path d="M530.7 580.1c11.1 22.8 35.1 65.8 109.1 62.8 25-1 53.1-18.9 78-9 20 8 48 57 20 122-13.5 31.3 45-59 47-107 0.5-11.8 5-47-10-78-10.9-22.5-29-40-51.1-56.7-23.4 14.2-38.4 37.2-38.4 37.2l-75 34-59-4-20.6-1.3z" fill="#FF6973" p-id="9750"></path><path d="M531.8 544.9c38-38 125.5-52.5 130-53.9-7.6-0.2-15.6 0.1-24 0.9-123 12-151 78-163 114 0 0-2.9 8.7-6.8 21.8 10.8-0.6 22.3-2.8 33.8-2.8 4-22 12-64 30-80z" fill="#F44E59" p-id="9751"></path><path d="M650.8 564.9c21-31 23.9-40 12-45.5s-109 21.5-117 38.5-12 27 18 26 67-8 67-8l20-11z" fill="#F43F4B" p-id="9752"></path><path d="M610.8 775.9c-12-8-25-18-27-39-5-44 0-29-12-73-9.9-40.4-39-83.4-77.9-99.2-9.8 15-15.3 29.6-19.1 41.2 0 0-32 97-27 132 0 0 122 152 228 111 140.9-56.7 136.9-180.5 131-223.4-18.5 60.7-71 193.4-196 150.4z" fill="#F43F4B" p-id="9753"></path><path d="M642.7 543.6c0.9 0.8 2.2 1 3.3 0.6 21.3-8.1 26-22.7 11.1-27.9-15.3-5.4-62.3-13.3-112.3 33.7-48.2 45.3 32.8 52.7 54 52 87-3 113-25 133-51 9.1-11.8 6-28-2.2-33.2-28.9-18.3-43.5-14.1-40.7-3.6 2.8 10.5 5.5 18.8-25.3 35.8-30.8 17-110 29.5-112.9 19-2.8-10.5 45.8-42.5 80-41 12.4 0.5 13.6 8.6 11.5 10.8-1.3 1.3-1.2 3.4 0.2 4.7l0.3 0.1z" fill="#FFB0B7" p-id="9754"></path><path d="M610.8 564.4c-0.5 0-0.9-0.1-1.4-0.3-0.9-0.4-1.6-1.1-1.9-2-0.5-1.4-50.2-139.6-51.2-229.2-1-86 10.9-163.6 18.1-195.8 0.2-0.9 0.7-1.6 1.4-2.1 1.9-1.3 8.6-5.7 13-5.7 3.3 0 5.5 2.2 5.5 5.6 0 0.2 0 0.5-0.1 0.7-22.6 106.2-23.3 217.5-2 305.4 20.3 83.8 41 108.3 41.2 108.5 0.7 0.8 1 2 0.8 3.1-0.2 1.1-1 2-2 2.4l-20 9c-0.5 0.3-0.9 0.4-1.4 0.4z" fill="#5EE37F" p-id="9755"></path><path d="M588.7 132.9c1.2 0 2 0.6 2 2.1-20 94-26 208-2 307 20.9 86.1 42 110 42 110l-20 9s-50-138-51-228 12-168 18-195c0.1-0.1 7.4-5.1 11-5.1m0-7c-5.1 0-11.6 4-15 6.3-1.4 1-2.5 2.5-2.8 4.2-7.2 32.4-19.1 110.3-18.2 196.6 0.4 37.9 9.2 88.2 26.1 149.5 12.6 45.5 25.2 80.4 25.3 80.8 0.7 1.8 2.1 3.3 3.9 4.1 0.9 0.4 1.8 0.6 2.7 0.6 1 0 2-0.2 2.9-0.6l20-9c2-0.9 3.6-2.7 4-4.9 0.5-2.2-0.1-4.4-1.6-6.1-0.7-0.8-20.7-25.5-40.5-107-21.2-87.4-20.4-198.2 2-303.9 0.1-0.5 0.2-1 0.2-1.5 0.1-5.3-3.7-9.1-9-9.1z" fill="#3A8F4F" p-id="9756"></path><path d="M780.1 586c21.2 48.4 29.8 131-38.4 189.5-3 2.6-7.2-1.3-4.8-4.5 48.6-65.2 43.3-144.6 36.8-183-0.6-4 4.8-5.6 6.4-2zM711.3 539.7c5-2.1 7.2 2.5 5.6 7.6-1.6 5.1-4.1 12.6-27.3 23.2-24.2 11-50.2 12.9-35.7 5.8s37.8-16.3 49-27.9c2.1-2.2 5.5-7.5 8.4-8.7z" fill="#FFEDEE" p-id="9757"></path><path d="M386 930.6c-29.9 0-58.7-8.3-79.3-22.8-27.9-20.2-50.1-43.5-65.8-69.1-13.9-22.7-23-47.4-27-73.3-4.3-28.3-2.4-58.6 5.5-87.5 6.6-24.1 17.1-46.4 29.5-63 25.5-34 50.1-41.2 66.2-41.2 16.9 0 32.6 7.8 44.3 22 4.2 5.2 18.9 12.4 38.2 12.4 14.6 0 28.8-4.2 41.2-12.2 6.2-4 12.9-6 20.2-6 30 0 61.4 33.6 82 87.7 26.2 69-10 171.9-59.9 217.8-24.6 22.7-58.4 35.2-95.1 35.2z" fill="#F45A64" p-id="9758"></path><path d="M315.2 577.2c16.5 0 31.1 8 41.6 20.8 5.3 6.5 21.3 13.7 40.9 13.7 13.4 0 28.6-3.4 43.1-12.7 5.6-3.6 11.8-5.4 18.3-5.4 25.9 0 57.1 28.6 78.7 85.4 25.2 66.2-9 168-59 214-26.2 24.1-60.3 34.2-92.8 34.2-29.5 0-57.7-8.4-77.2-22.2-134-97-96-236-57-288 21.2-28.4 43.7-39.8 63.4-39.8m0-7c-16.9 0-42.7 7.4-69 42.6-12.7 16.9-23.4 39.7-30.1 64.2-8 29.4-10 60.1-5.6 88.9 4 26.5 13.2 51.6 27.4 74.7 16 26 38.5 49.6 66.7 70.1h0.1c21.1 14.9 50.7 23.5 81.3 23.5 37.6 0 72.2-12.8 97.5-36 25.6-23.6 47.4-61 59.7-102.6 13.1-44.3 13.5-86.6 1.1-119-10.5-27.7-24.1-50.7-39.2-66.4-14.9-15.4-30.8-23.6-46-23.6-7.9 0-15.3 2.2-22.1 6.5-11.8 7.6-25.4 11.6-39.3 11.6-18 0-31.8-6.7-35.5-11.2-12.3-15-29-23.3-47-23.3z" fill="#D11B47" p-id="9759"></path><path d="M543.1 697.6c0.3 59-14.6 117.2-53.4 164.3-20 26-49.3 38.2-81 41-125 11-183.8-108.7-193.4-158.5 2.5 53.3 26.5 112.1 93.4 160.5 41 29 120 34 170-12 45.6-41.8 77.9-130 64.4-195.3z" fill="#F43F4B" p-id="9760"></path><path d="M368.8 667.9l-33.5-22.5 9.5 31.5-33.5-6.5 18.5 20.5-33-2 20 29-48-17 35.5 33.5-16 11 31.5 17.5-14 24 24 3-10.6 22 23.5 6.5-3.9 35.5 20-22 8.5 47.5 6.5-47.5 13 25 14-34 31.5 12.5v-24l41-6-25.5-27.5 28.5-2.5-27.5-18.5 32.5-12.5-41.5-24.5 18-20-26-7 11.5-18.5-18.5-0.5 9.5-23.5-39.5 20.5-11.5-20.5zM409.8 638.9c19.6-3.9 25-25.6 35.6-42.5-1.6 0.7-3.1 1.5-4.6 2.5-35.7 22.9-75 10-84-1-0.6-0.7-1.2-1.5-1.9-2.2 3.8 8.8 7.6 17.6 8.9 27.2 2 23 29 20 46 16z" fill="#F43F4B" p-id="9761"></path><path d="M383.8 678.9c-23.9-2.8-55.9 14-54 54 1 21 16 49 33 70s15 17 24 9 47-39 44-80-30-51-47-53z" fill="#D93843" p-id="9762"></path><path d="M383.5 684.6c-21.9-2.6-51.3 12.9-49.6 49.6 0.9 19.3 14.7 45 30.3 64.2s13.8 15.6 22 8.3c8.3-7.3 43.1-35.8 40.4-73.4-2.7-37.6-27.5-46.8-43.1-48.7z" fill="#F99161" p-id="9763"></path><path d="M370.8 699.9c-9.4-1.1-23 8.8-22.3 24.5 0.4 8.2 5.6 22.3 12.3 30.5 6.7 8.2 9.5 8.1 13 5 3.5-3.1 0.2-16.9-1-33s4.6-26.2-2-27z" fill="#FFA175" p-id="9764"></path><path d="M384.8 793.9c-12 6-23-18-30-31-8.5-17-15-34.5-16.6-52.9-3 6.7-4.7 14.7-4.2 24.2 0.9 19.3 14.7 45 30.3 64.2 15.6 19.3 13.8 15.6 22 8.3 7.7-6.9 38.8-32.3 40.5-66.3-8.6 22.2-21.2 41.7-42 53.5z" fill="#F9834D" p-id="9765"></path><path d="M391.2 636.8c-11.6 0-16.2-7.8-16.4-8.1-0.5-0.9-0.6-2-0.3-2.9 3.7-10.3 8.6-30.3 14.8-55.6 16.6-68.1 44.4-182 88.4-262.8 22.8-46.4 41.1-85.3 54.5-113.7 19.3-40.9 26.1-55.2 29.1-58.2 0.7-0.7 1.5-1 2.5-1h0.2c4.2 0.3 7.2 1.9 8.7 4.7 4.4 7.9-3.3 22.5-18.8 51.7-1.6 3.1-3.3 6.3-5.1 9.7-5.9 11.3-59 113.3-94.8 213.6-29.5 82.7-45.7 214.9-45.8 216.2-0.1 1.2-0.9 2.3-2 2.8-5.4 2.3-10.4 3.6-15 3.6z" fill="#5EE37F" p-id="9766"></path><path d="M563.8 137.9c15 1 3 21-18 61s-65 130-95 214-46 217-46 217c-5.5 2.5-9.9 3.3-13.6 3.3-9.7 0-13.4-6.3-13.4-6.3 14-39 43-208 103-318 50-102 78-166 83-171m0-7c-1.9 0-3.6 0.7-4.9 2.1-3.4 3.4-9.5 16-29.8 59.2-13.4 28.4-31.7 67.2-54.4 113.6-44.3 81.2-72.1 195.3-88.7 263.6-6.2 25.2-11 45.2-14.6 55.3-0.7 1.9-0.5 4.1 0.5 5.9 0.6 1 6.1 9.8 19.5 9.8 5.1 0 10.6-1.3 16.5-4 2.2-1 3.8-3.1 4.1-5.5 0.2-1.3 16.3-133.2 45.6-215.5 35.7-100 88.7-201.8 94.6-213.1 1.8-3.4 3.5-6.6 5.1-9.7 16.5-31.3 24-45.5 18.7-55-1.5-2.7-4.8-6-11.6-6.5-0.3-0.2-0.5-0.2-0.6-0.2z" fill="#3A8F4F" p-id="9767"></path><path d="M463.5 634.9l22.7-8.9-16 13.3c-3 2.5-6.4 4.4-10 5.7l-14.5 5.1 4.7-5.6c3.5-4.4 8-7.6 13.1-9.6zM461.9 843.5l16.7 17.9-18.2-10c-3.4-1.9-6.4-4.3-9-7.2l-10-11.6 6.9 2.3c5.2 1.6 9.9 4.6 13.6 8.6zM469.5 656.5l22.7-5.6-16 8.3c-3 1.5-6.4 2.7-10 3.5l-14.5 3.2 4.7-3.5c3.5-2.6 8-4.6 13.1-5.9zM457.5 679.5l22.7-5.6-16 8.3c-3 1.5-6.4 2.7-10 3.5l-14.5 3.2 4.7-3.5c3.5-2.6 8-4.6 13.1-5.9zM487.5 678.4l22.7-4.5-16 6.6c-3 1.2-6.4 2.2-10 2.8l-14.5 2.5 4.7-2.8c3.5-2 8-3.6 13.1-4.6zM491.6 705.4l37-1.1-26.6 5.4c-5 1-10.5 1.5-16.5 1.6l-23.5 0.3 7.9-2.7c5.9-2.1 13.4-3.3 21.7-3.5zM490.3 761l22.7 4.9-17.3-0.2c-3.2 0-6.7-0.5-10.3-1.4l-14.3-3.4 5.4-0.7c4-0.6 8.8-0.3 13.8 0.8z" fill="#FF6973" p-id="9768"></path><path d="M474.4 821.5L494 834l-16.4-6.1c-3.1-1.1-6.2-2.8-9.3-4.8l-12.2-8.2 5.5 1.1c4 0.8 8.4 2.7 12.8 5.5z" fill="#FFB0B7" p-id="9769"></path><path d="M430.7 853.1l15.4 17.1-13.3-10.5c-2.5-1.9-5-4.4-7.4-7.2l-9.6-11 4.5 2.7c3.4 2.1 7 5.1 10.4 8.9zM322.4 847.3l14-18.2-8.1 14.7c-1.5 2.7-3.4 5.6-5.7 8.5l-9.1 11.4 1.9-4.7c1.5-3.6 3.9-7.6 7-11.7zM292.3 806.1l21.7-7.7-14.7 8.3c-2.7 1.5-5.9 2.9-9.4 4.1l-13.9 4.7 4.2-3.1c3.1-2.4 7.3-4.5 12.1-6.3z" fill="#FF6973" p-id="9770"></path><path d="M283.3 777.1l21.7-7.7-14.7 8.3c-2.7 1.5-5.9 2.9-9.4 4.1l-13.9 4.7 4.2-3.1c3.1-2.4 7.3-4.5 12.1-6.3zM483.1 726.8l-22.9-2.4 16.9-1.1c3.1-0.2 6.6-0.1 10.3 0.3l14.5 1.8-5.1 1c-3.9 0.8-8.6 0.9-13.7 0.4z" fill="#FFB0B7" p-id="9771"></path><path d="M498.1 737.8l-22.9-2.4 16.9-1.1c3.1-0.2 6.6-0.1 10.3 0.3l14.5 1.8-5.1 1c-3.9 0.8-8.6 0.9-13.7 0.4zM508.9 778l-22.5-4.8 16.9 0.7c3.1 0.1 6.6 0.6 10.2 1.5l14.3 3.3-5.2 0.5c-4 0.3-8.7-0.1-13.7-1.2zM273.3 789.1l21.7-7.7-14.7 8.3c-2.7 1.5-5.9 2.9-9.4 4.1l-13.9 4.7 4.2-3.1c3.1-2.4 7.3-4.5 12.1-6.3z" fill="#FF6973" p-id="9772"></path><path d="M289.2 821.6l20-11.4-13.1 10.8c-2.4 2-5.3 3.9-8.6 5.7l-12.8 7 3.6-3.8c2.7-2.9 6.5-5.7 10.9-8.3z" fill="#FFB0B7" p-id="9773"></path><path d="M317.6 827.2l13.7-9.1-8.6 9.1c-1.6 1.7-3.6 3.3-5.8 4.7l-8.8 5.5 2.3-3.3c1.6-2.5 4.1-4.8 7.2-6.9zM271.1 766.6l33.9-3.4-24 6.2c-4.5 1.2-9.5 2-15 2.5l-21.5 1.9 7-2.7c5.3-2.2 12.1-3.7 19.6-4.5z" fill="#FF6973" p-id="9774"></path><path d="M263.3 734.6L286 739l-17.3 0.1c-3.2 0-6.7-0.4-10.4-1.1l-14.4-3.1 5.4-0.8c4.1-0.7 8.9-0.5 14 0.5z" fill="#FFB0B7" p-id="9775"></path><path d="M270.8 749.4l17.8 3.1-13.6 0.5c-2.5 0.1-5.3-0.1-8.1-0.7l-11.2-2.2 4.2-0.8c3.2-0.6 7-0.6 10.9 0.1z" fill="#FF6973" p-id="9776"></path><path d="M256.6 712.4l21.9 7.5-17.2-2.2c-3.2-0.4-6.6-1.3-10.1-2.6l-13.8-5 5.4-0.1c4.2-0.2 8.9 0.7 13.8 2.4z" fill="#FF6973" p-id="9777"></path><path d="M275.1 690.2l20.3 11.2-16.5-5.2c-3.1-1-6.3-2.4-9.5-4.3l-12.7-7.3 5.4 0.8c3.9 0.6 8.4 2.3 13 4.8z" fill="#FF6973" p-id="9778"></path><path d="M279.8 658l17.1 15.7-14.8-9c-2.8-1.7-5.5-3.8-8.2-6.4l-10.6-10.2 5 2.1c3.7 1.6 7.7 4.3 11.5 7.8z" fill="#FFB0B7" p-id="9779"></path><path d="M318 623.5l12.4 19.9-12.9-12.6c-2.4-2.4-4.6-5.2-6.5-8.4l-7.5-12.8 4.8 3.3c3.6 2.5 7 6.1 9.7 10.6z" fill="#FF6973" p-id="9780"></path><path d="M231.8 458.4c-0.7 0-1.5-0.2-2.1-0.7-1.4-1-1.8-2.9-1.1-4.4 5.1-10.1 13.9-38.3 23.7-87.1 21.8-123.7 56.5-150.7 96.7-182.1l2.5-2c21.7-16.9 60.6-25.2 118.8-25.2 9.1 0 17.3 0.2 23.9 0.3 4.6 0.1 8.5 0.2 11.5 0.2 1.6 0 2.8 0 3.8-0.1 16.4-0.9 39.1-9.3 51.7-19.1 0.6-0.5 1.4-0.7 2.1-0.7 0.6 0 1.1 0.1 1.6 0.4l7 3.7c1.2 0.6 1.9 1.8 1.9 3.2s-0.8 2.5-2 3.1c-0.3 0.1-30.2 14.3-56.2 22.3-0.1 0-0.3 0.1-0.5 0.1-3.8 0.6-8.1 11.1-13.5 24.4-6.9 16.8-17.2 42.3-36.1 72-24.9 39.1-59.1 78.2-96.4 110.2-30.4 26.1-61 45.5-77.7 49.4-2.1 0.5-4 0.9-5.8 1.3-24 5.5-27.1 6.2-51.6 29.8-0.5 0.7-1.4 1-2.2 1z" fill="#5EE37F" p-id="9781"></path><path d="M563.4 141.1l7 3.7s-29.7 14.1-55.7 22.1c-12 2-15.9 41.3-52 98-56 88-142 151-172 158s-32 6-59 32c5-10 14-38 24-88 22-125 57-150 98-182 27.3-21.3 79.6-24.4 116.7-24.4 15.3 0 28 0.5 35.4 0.5 1.6 0 2.9 0 4-0.1 18-1 41-10 53.6-19.8m0-7c-1.5 0-3 0.5-4.3 1.5-12.2 9.4-34 17.5-49.8 18.4-0.9 0-2 0.1-3.6 0.1-2.9 0-6.9-0.1-11.4-0.2-6.6-0.1-14.9-0.3-24-0.3-59.1 0-98.6 8.5-121 25.9l-2.5 2c-20.3 15.8-39.4 30.7-56.2 57.6-18.5 29.5-31.8 69.7-41.8 126.7-9.7 48.5-18.7 76.7-23.4 86.2-1.5 3-0.6 6.8 2.1 8.8 1.2 0.9 2.7 1.4 4.1 1.4 1.8 0 3.5-0.7 4.9-2 23.7-22.9 26.2-23.4 49.9-28.9 1.8-0.4 3.8-0.9 5.8-1.3 17.5-4.1 47.9-23.3 79.2-50.1 37.6-32.2 72.1-71.6 97.1-110.9 19.1-30 29.5-55.6 36.4-72.6 2.9-7.1 5.1-12.7 7.3-16.8 2.2-4.3 3.5-5.4 3.8-5.6 0.2 0 0.5-0.1 0.7-0.2 26.2-8.1 55.4-21.9 56.6-22.5 2.4-1.1 3.9-3.5 4-6.2s-1.4-5.1-3.7-6.3l-7-3.7c-0.9-0.7-2-1-3.2-1z" fill="#3A8F4F" p-id="9782"></path><path d="M366.8 187.9c-21 11-41 21-49 43 2 0 4 1 5-1 0 2 1 5 0 6-11 8-30 14-29 28 0 3 6 5 3 9-3 5-7 10-9 15-8 23-8 46-19 68-10 21-13 46-11 70 6-2 12-5 16-11-1 3 2 5 3 7 23-10 38-31 48-53 2 6-2 17 2 17 14-3 14-26 29-32 2 6 8 10 11 6 12-12 14-31 27-42 1-1 3 10 6 5 7-8 10-22 19-24 6-1 13 4 17-4 4-10 2-23 12-29 1-1 2 3 2 6 16-15 18-41 36-52 0.7-0.5 1.4-0.9 2.1-1.3 14.1-30.8 18.5-50.3 26.9-51.7 26-8 55.7-22.1 55.7-22.1l-7-3.7c-12.7 9.8-35.7 18.8-53.7 19.8-9.5 0.5-40.8-1.7-74.4 0.7-19.8 7.1-40.9 6.3-58.6 19.3-3 2-7 5-10 7z" fill="#3AD961" p-id="9783"></path><path d="M231.8 458.4c-0.7 0-1.5-0.2-2.1-0.7-1.5-1.2-1.8-3.4-0.6-4.9 9.4-12.1 24.1-39.7 41.2-71.6 25.9-48.6 58.2-109.1 87.9-145.4 45.4-55.6 113-78.3 157-80.8 1.9-0.1 3.6 1.4 3.7 3.3 0.1 1.9-1.4 3.6-3.3 3.7-42.6 2.4-108 24.4-152 78.2-29.3 35.8-61.4 96-87.1 144.3-17.2 32.2-32 60-41.8 72.6-0.9 0.9-1.9 1.3-2.9 1.3z" fill="#3A8F4F" p-id="9784"></path><path d="M465.8 248.4c-0.6 0-1.2-0.1-1.7-0.4-1.7-0.9-2.3-3.1-1.4-4.8 13.4-24.4 18.9-64.5 16.8-76.9-0.3-1.9 1-3.7 2.9-4 1.9-0.3 3.7 1 4 2.9 2.6 14.9-3.8 56.6-17.5 81.5-0.7 1.1-1.9 1.7-3.1 1.7zM444.3 279.9c-0.4 0-0.8-0.1-1.1-0.2-1.8-0.6-2.8-2.6-2.2-4.4 9.3-26.9 9.5-80 8.2-101.6-0.1-1.9 1.3-3.6 3.3-3.7 1.9-0.1 3.6 1.3 3.7 3.3 1.1 17.5 1.9 74.2-8.5 104.3-0.6 1.4-2 2.3-3.4 2.3zM424.3 305.9c-0.3 0-0.7 0-1-0.1-1.9-0.5-2.9-2.5-2.4-4.3 9.2-31.8 2.8-102.4 1.4-116.2-0.2-1.9 1.2-3.6 3.1-3.8 1.9-0.2 3.6 1.2 3.8 3.1 1.4 14.1 8 85.9-1.6 118.9-0.4 1.4-1.8 2.4-3.3 2.4zM394.3 332.9c-0.4 0-0.8-0.1-1.2-0.2-1.8-0.7-2.7-2.7-2.1-4.5 10.1-27.2 12.3-99.7 3.8-125-0.6-1.8 0.4-3.8 2.2-4.4 1.8-0.6 3.8 0.4 4.4 2.2 9.7 29 5.9 103.2-3.9 129.7-0.5 1.3-1.8 2.2-3.2 2.2zM359.3 366.9c-0.5 0-1.1-0.1-1.6-0.4-1.7-0.9-2.4-3-1.5-4.7 24.9-48.8 15.4-129.1 14.2-138.1-0.2-1.9 1.1-3.7 3-3.9 1.9-0.3 3.7 1.1 3.9 3 1.2 9.2 11 91.5-14.9 142.2-0.6 1.2-1.9 1.9-3.1 1.9zM322.8 395.4c-0.7 0-1.4-0.2-2-0.6-1.6-1.1-2-3.3-0.9-4.9 15.6-23 20.6-87.8 17.2-124.1-0.2-1.9 1.2-3.6 3.2-3.8 1.9-0.2 3.6 1.2 3.8 3.2 3.4 36.6-1.3 103.5-18.4 128.7-0.7 1-1.8 1.5-2.9 1.5zM283.8 418.4c-0.5 0-1-0.1-1.5-0.3-1.8-0.8-2.5-2.9-1.7-4.7 6.8-14.6 17.7-55 20-87.6 0.1-1.9 1.8-3.4 3.7-3.3 1.9 0.1 3.4 1.8 3.3 3.7-2.3 33.5-13.6 75-20.6 90.1-0.7 1.4-1.9 2.1-3.2 2.1z" fill="#3A8F4F" p-id="9785"></path><path d="M364.3 187.9c-1.3 0-2.6-0.7-3.2-2-0.8-1.8-0.1-3.8 1.7-4.7 25.8-12.1 49.4-11.3 70.2-10.5 5.8 0.2 11.2 0.4 16.5 0.3 1.9 0 3.5 1.5 3.5 3.4s-1.5 3.5-3.4 3.5c-5.5 0.1-11-0.1-16.8-0.3-20-0.7-42.7-1.5-67 9.9-0.5 0.3-1 0.4-1.5 0.4zM310.3 237.9c-0.8 0-1.7-0.3-2.4-0.9-1.4-1.3-1.5-3.5-0.2-4.9 38.9-42.3 68.1-41.7 91.5-41.2 3.5 0.1 6.7 0.1 9.9 0.1 2 0 3.5 1.5 3.6 3.4 0 1.9-1.5 3.5-3.4 3.6-3.3 0.1-6.7 0-10.2-0.1-23.2-0.5-49.4-1-86.2 39-0.8 0.6-1.7 1-2.6 1z" fill="#3A8F4F" p-id="9786"></path><path d="M284.3 279.9c-0.8 0-1.7-0.3-2.3-0.9-1.4-1.3-1.6-3.5-0.3-4.9 44.2-49.8 65.8-58.6 97.4-59.5 1.9-0.1 3.5 1.5 3.6 3.4 0.1 1.9-1.5 3.5-3.4 3.6-29.5 0.9-49.9 9.3-92.4 57.2-0.7 0.7-1.7 1.1-2.6 1.1zM270.3 329.9c-0.6 0-1.3-0.2-1.9-0.5-1.6-1-2.1-3.2-1.1-4.8 8.2-13.1 37.8-56.5 73.6-65 1.9-0.4 3.8 0.7 4.2 2.6 0.5 1.9-0.7 3.8-2.6 4.2-33.3 8-61.5 49.4-69.4 62-0.5 0.9-1.7 1.5-2.8 1.5z" fill="#3A8F4F" p-id="9787"></path><path d="M262.3 373.9c-0.8 0-1.6-0.3-2.3-0.8-1.5-1.2-1.7-3.5-0.4-4.9 3.7-4.3 7.7-10.1 12-16.3 10.6-15.2 22.6-32.5 36.9-39.6 1.7-0.9 3.8-0.1 4.7 1.6 0.9 1.7 0.1 3.8-1.6 4.7-12.7 6.3-24.2 22.8-34.3 37.3-4.4 6.3-8.5 12.2-12.4 16.8-0.7 0.8-1.6 1.2-2.6 1.2z" fill="#3A8F4F" p-id="9788"></path><path d="M582.3 147.5c-5 0-11.4-0.8-16.8-2.1-8-1.9-11.3-4.1-11.3-7.5v-0.4c0-0.2 2-18.9 2-26.6 0-4.5 1.5-8.5 4.6-11.9 2.1-2.4 4.6-4 6-5 0.6-0.4 2.7-2.3 4.5-4 9.8-9.2 15.2-13.5 19.4-13.5 5.8 0 6.9 7.1 8.2 14.7 0.6 4 1.4 8.9 2.8 10.9 1.6 2.3 2.4 6.4 2.5 12.5 0.2 7.6-3.3 17.5-10.4 29.2-1.6 2.5-5.2 3.7-11.5 3.7z" fill="#AB874E" p-id="9789"></path><path d="M590.8 79.9c5 0 4 18 8 24 1.2 1.9 1.8 5.9 1.9 10.6 0.2 10.6-7.8 23.9-9.9 27.4-0.9 1.5-4.2 2.1-8.4 2.1-9.8 0-24.6-3.3-24.6-6.1 0 0 2-19 2-27 0-4.2 1.7-7.3 3.7-9.6 1.8-2.1 3.9-3.5 5.3-4.4 3-2 17-17 22-17m0-7c-5.4 0-11.1 4.5-21.8 14.5-1.6 1.5-3.5 3.3-4.1 3.7-1.6 1.1-4.2 2.8-6.7 5.6-3.6 4.1-5.4 8.9-5.4 14.2 0 7.5-1.9 26.1-2 26.3v0.7c0 7.6 9.4 9.8 14 10.9 5.7 1.4 12.3 2.2 17.6 2.2 5.2 0 11.5-0.6 14.4-5.5v-0.1c7.4-12.3 11-22.8 10.9-31.1-0.2-9-1.9-12.5-3.1-14.4-0.9-1.4-1.7-6.5-2.2-9.5-0.5-3.3-1-6.5-1.9-9.2-2.4-7.2-7.1-8.3-9.7-8.3z" fill="#684D0C" p-id="9790"></path><path d="M600.6 113.7c-0.1-4.4-0.7-8.1-1.9-9.8-4-6-3-24-8-24s-19 15-22 17c-1.4 0.9-3.5 2.4-5.3 4.4-0.3 0.3-0.5 0.6-0.7 0.9 9.1 10.7 24.2 14.4 37.9 11.5z" fill="#8F7141" p-id="9791"></path></svg>