<?xml version="1.0" standalone="no"?><!DOCTYPE svg PUBLIC "-//W3C//DTD SVG 1.1//EN" "http://www.w3.org/Graphics/SVG/1.1/DTD/svg11.dtd"><svg t="1586880083384" class="icon" viewBox="0 0 1024 1024" version="1.1" xmlns="http://www.w3.org/2000/svg" p-id="2910" xmlns:xlink="http://www.w3.org/1999/xlink" width="200" height="200"><defs><style type="text/css"></style></defs><path d="M742 481.6c-54 53.9-107.9 107.9-161.9 161.8-53.7 53.7-107.4 107.5-161.1 161.2l-91.2 91.2c-9.1 9.1-14.6 22.5-14.6 35.4 0 12.3 5.4 26.9 14.6 35.4 9.5 8.7 22 15.2 35.4 14.6 13.3-0.6 25.8-5.1 35.4-14.6l161.8-161.8 161.1-161.1 91.2-91.2c9.1-9.1 14.6-22.5 14.6-35.4 0-12.3-5.4-26.9-14.6-35.4-9.5-8.7-22-15.2-35.4-14.6-13.2 0.4-25.8 4.9-35.3 14.5z" fill="#e6e6e6" p-id="2911"></path><path d="M812.7 472L650.8 310.1 489.7 149l-91.2-91.2c-9.1-9.1-22.5-14.6-35.4-14.6-12.3 0-26.9 5.4-35.4 14.6-8.7 9.5-15.2 22-14.6 35.4 0.6 13.3 5.1 25.8 14.6 35.4l161.8 161.8 161.1 161.1 91.2 91.2c9.1 9.1 22.5 14.6 35.4 14.6 12.3 0 26.9-5.4 35.4-14.6 8.7-9.5 15.2-22 14.6-35.4-0.5-13.2-5-25.8-14.5-35.3z" fill="#e6e6e6" p-id="2912"></path></svg>