<?xml version="1.0" standalone="no"?><!DOCTYPE svg PUBLIC "-//W3C//DTD SVG 1.1//EN" "http://www.w3.org/Graphics/SVG/1.1/DTD/svg11.dtd"><svg t="1586879069538" class="icon" viewBox="0 0 1024 1024" version="1.1" xmlns="http://www.w3.org/2000/svg" p-id="2577" xmlns:xlink="http://www.w3.org/1999/xlink" width="200" height="200"><defs><style type="text/css"></style></defs><path d="M396 238.9c-16 62.2-57.9 109.7-57.9 109.7-43.9 61-150.3 97.4-182.5 73.6-5.6-25.2-15.4-167.9 70-236.5s247.7-51.8 247.7-51.8-62.2 46.2-77.3 105z" fill="#d4237a" p-id="2578"></path><path d="M518 63.9h47.6s-5.3 114.2 4.5 150.6c0 0 19.6 100.8 67.2 174.9 0 0 51.5 84.5 52.9 146.1h-22.4s-22.4-86.8-54.6-138.5-63-139.9-64.4-176.3c-16.8 23.8 1.4 64.4-50.4 142.7-51.8 78.4-136 159-148.6 210.8 0 0-9.5 14.6-8.1 34.1h-23.8s11.5-49 59.1-113.4c0 0 101-114.8 119.2-158.8 0 0 23.2-37.1 23.2-95.9 0-58.7-1.4-176.3-1.4-176.3z" fill="#d4237a" p-id="2579"></path><path d="M184.3 712.3c-15.4 0-27.2-2.9-29.4-11.2 0 0-5.2-16.7 10-26.1 5.2-3.2 12.6-4.7 21.2-4.7 14.8 0 33.3 4.3 50.5 11.2 12.5 5 29.8 6.2 43.8 6.2 13.4 0 23.7-1.1 23.7-1.1s-22.5 9-45.7 14.5c-19.3 4.6-50.8 11.2-74.1 11.2m8.7-63.2c-6.6 0-13 0.8-19.2 2.6-36.5 10.8-57.4 33.6-56 85.4s14.8 143.3 104.4 192.3c0 0 45.2 30.5 101.8 30.6h0.7c24.1 0 50.2-5.6 75.8-21.4 67.8-45.2 67.7-70.8 67.7-70.8s-60.2-75.6-37.8-209.9c0 0-48.3 17.2-98.5 17.2-6.4 0-12.9-0.3-19.3-0.9-47-4.8-86-25.1-119.6-25.1M538.8 636.2s5.9-33 34.2-33h1.6c29.7 1.2 36.5 8.6 45 10.4 11.5 2.6 52 6.2 65 6.2 1.7 0 2.9-0.1 3.5-0.2h0.4c3.8 0-23.1 19.9-70.9 22.9-5.1 0.3-9.5 0.5-13.4 0.5-14.2 0-21-1.9-27.2-3.8s-11.7-3.8-23.4-3.8c-4.1 0-9 0.2-14.8 0.8m275.7-52.4c-30.2 0-40.8 5.7-65.5 11.9-10.3 2.6-21 3.4-31.7 3.4-18.4 0-36.9-2.6-53.7-3.4-23.9-1.3-44.5-11.6-84.1-11.6-4.4 0-9 0.1-13.9 0.4-35.4 2-73.8 34-73.8 100.3 0 25.4 5.6 55.7 19.2 91.4 49 128.7 179.1 132.9 179.1 132.9 74.2-1.4 113.4-28.3 113.4-28.3 95.2-77 99.6-188.9 99.6-188.9 0.4-4.9 0.6-9.6 0.6-14.1v-0.5c-0.1-58.7-32.4-87.7-76.5-93.2-4.5-0.2-8.8-0.3-12.7-0.3" fill="#d4237a" p-id="2580"></path></svg>